<svg version="1.1" id="Layer_1" xmlns="http://www.w3.org/2000/svg" xmlns:xlink="http://www.w3.org/1999/xlink" x="0px" y="0px"
	viewBox="0 0 400 275" enable-background="new 0 0 400 275" xml:space="preserve">
<path fill="none" opacity="1.000000" stroke="none" 
	d="
M254.000000,276.000000 
	C169.333344,276.000000 85.166695,276.000000 1.000034,276.000000 
	C1.000023,184.333359 1.000023,92.666733 1.000011,1.000071 
	C134.333282,1.000047 267.666565,1.000047 400.999878,1.000024 
	C400.999939,92.666595 400.999939,184.333191 400.999969,275.999878 
	C352.166656,276.000000 303.333344,276.000000 254.000000,276.000000 
M209.376953,137.654816 
	C209.301529,146.529709 209.226105,155.404602 209.155304,165.124176 
	C209.155304,167.218277 209.155304,169.312393 209.155304,171.927628 
	C212.253342,171.927628 214.739090,172.208984 217.105621,171.800247 
	C218.172180,171.616013 219.798004,170.070526 219.815598,169.117676 
	C220.009949,158.592743 219.937790,148.062897 219.937790,137.170761 
	C216.246140,137.170761 213.150406,137.170761 209.376953,137.654816 
M15.740456,139.168991 
	C24.420218,138.404800 33.110115,137.739975 41.777645,136.855896 
	C60.287872,134.967880 78.752869,132.509338 97.299652,131.143646 
	C114.774429,129.856903 132.329498,129.145218 149.850815,129.115997 
	C183.470993,129.059906 217.092957,129.611191 250.712723,130.027466 
	C262.562531,130.174179 274.407532,130.686066 286.255981,130.982513 
	C290.209045,131.081451 294.194214,130.729858 298.115814,131.100967 
	C310.389465,132.262451 322.640594,133.663025 334.898956,134.984833 
	C349.962708,136.609146 365.027252,138.226761 380.086639,139.890656 
	C385.560974,140.495499 391.021545,141.225098 396.543304,141.904541 
	C397.109650,138.754318 397.618988,136.335068 397.965027,133.892685 
	C398.406097,130.779633 396.848206,129.376328 393.820801,129.009201 
	C377.760345,127.061562 361.741241,124.713745 345.646606,123.123711 
	C328.198486,121.399971 310.692230,120.219727 293.194153,119.061264 
	C279.631531,118.163353 266.041992,117.674538 252.466400,116.965927 
	C251.409409,116.910744 250.368027,116.556068 249.319397,116.340591 
	C248.849045,115.713608 248.378693,115.086632 247.908340,114.459656 
	C250.119965,112.959251 252.560806,111.706909 254.501785,109.913574 
	C261.256714,103.672424 268.226318,98.793526 278.336304,100.320496 
	C284.079529,101.187927 289.202026,98.533943 293.356720,94.190117 
	C303.819183,83.251389 314.417023,72.442268 324.937958,61.559299 
	C334.042603,52.141354 343.127686,42.704369 352.185455,33.241386 
	C353.088287,32.298164 353.981720,31.207539 354.436920,30.016222 
	C354.829987,28.987545 354.592743,27.718037 354.634155,26.554995 
	C353.468842,26.828541 351.979523,26.733625 351.186676,27.430777 
	C338.867645,38.262779 326.671997,49.234985 314.376404,60.093906 
	C307.182373,66.447380 299.957214,72.772804 292.566803,78.894409 
	C287.179840,83.356499 280.139587,83.008980 276.032043,78.477486 
	C272.386322,74.455467 273.007538,67.864601 277.660614,62.870399 
	C287.848633,51.935467 298.135803,41.092827 308.311584,30.146566 
	C315.425446,22.494047 322.481537,14.785079 329.397125,6.954421 
	C330.287628,5.946115 330.177155,4.053827 330.530365,2.571028 
	C329.917267,2.284405 329.304138,1.997782 328.691010,1.711158 
	C322.838409,6.962991 316.946686,12.172009 311.140656,17.474821 
	C294.851685,32.351955 278.625244,47.297619 262.314850,62.151157 
	C257.052032,66.943909 254.597137,72.727646 254.971771,79.850113 
	C255.350159,87.044464 252.725845,93.111130 247.487335,98.040092 
	C241.937103,103.262367 236.536545,108.664948 230.710846,113.560699 
	C228.894440,115.087158 225.921387,115.836205 223.455536,115.888351 
	C212.127380,116.127930 200.778366,115.661530 189.462341,116.102707 
	C180.679031,116.445137 172.554535,116.139778 167.149902,107.788261 
	C166.466782,106.732689 165.315216,105.913536 164.243927,105.186325 
	C154.915909,98.854347 150.304214,90.378395 151.959763,78.893799 
	C152.242203,76.934555 151.987198,74.899513 152.001465,72.899635 
	C152.048035,66.369652 150.176346,60.447533 145.950317,55.464027 
	C137.707932,45.744228 129.340286,36.130337 120.992989,26.499914 
	C114.597572,19.121418 108.068619,11.856593 101.778702,4.389876 
	C99.646988,1.859322 97.521088,1.424055 94.859947,3.083991 
	C87.170425,7.880478 79.232269,12.338263 71.898636,17.631357 
	C60.879753,25.584307 54.042526,36.926540 48.570824,49.107880 
	C48.072987,50.216187 48.224354,52.424511 48.993801,53.160007 
	C53.373466,57.346447 57.939568,61.353233 62.615128,65.211647 
	C73.578201,74.258705 84.925629,82.862320 95.578178,92.256950 
	C105.790794,101.263596 117.101448,105.912857 130.720367,104.019218 
	C140.926254,102.600143 147.637299,107.630722 153.618500,115.888680 
	C150.948883,116.322861 148.886246,116.876930 146.806274,116.952171 
	C142.145172,117.120789 137.461227,116.825401 132.811722,117.118073 
	C113.482742,118.334785 94.163567,119.706520 74.839729,121.005707 
	C69.054626,121.394653 63.230957,121.446037 57.486012,122.150215 
	C42.911610,123.936668 28.386776,126.127106 13.813089,127.919991 
	C3.317553,129.211166 3.290737,129.043106 5.183654,139.534592 
	C5.260830,139.962357 5.654180,140.333084 5.974249,140.849915 
	C9.032605,140.383469 12.052019,139.922943 15.740456,139.168991 
M386.049683,195.053085 
	C383.226105,194.942505 380.371979,195.058701 377.584167,194.682800 
	C364.178650,192.875198 350.830170,190.566330 337.386932,189.136093 
	C321.110168,187.404434 304.775635,186.087128 288.434723,185.121964 
	C271.046631,184.094955 253.622330,183.140533 236.213013,183.125549 
	C198.426834,183.093048 160.639709,183.641861 122.854080,184.053024 
	C117.229980,184.114212 111.601654,184.602112 105.992714,185.092133 
	C87.881287,186.674393 69.756409,188.145691 51.678783,190.057602 
	C38.585815,191.442352 25.559673,193.459000 11.731230,195.296524 
	C12.207393,199.451553 12.624539,203.091599 12.903212,205.523300 
	C60.194321,201.636429 106.654694,197.817841 153.115067,193.999252 
	C153.327286,194.577148 153.539490,195.155060 153.751709,195.732971 
	C152.598648,197.223007 151.604248,198.876419 150.266083,200.175842 
	C142.994080,207.237213 135.581924,214.154465 128.322174,221.228226 
	C116.374840,232.869507 104.518509,244.604141 92.600204,256.275330 
	C88.293709,260.492554 87.982346,266.838593 91.943275,271.361053 
	C95.841705,275.812164 103.814880,276.394806 108.102715,272.353302 
	C116.043785,264.868408 123.933258,257.326630 131.741394,249.703232 
	C149.487732,232.376801 167.132523,214.946014 184.953003,197.696518 
	C186.433853,196.263107 188.903870,195.211060 190.960617,195.127960 
	C198.448059,194.825394 205.956818,194.927780 213.453461,195.079346 
	C214.969147,195.109985 216.869232,195.600998 217.907547,196.594925 
	C224.432678,202.840958 230.723099,209.331070 237.167786,215.662445 
	C253.777130,231.979797 270.404175,248.279343 287.079407,264.529297 
	C290.242950,267.612183 293.465729,270.698700 297.010071,273.309998 
	C301.486176,276.607758 308.581726,275.537598 311.941803,271.518890 
	C316.150208,266.485626 316.002380,262.022583 311.430511,256.945251 
	C310.650940,256.079498 309.794891,255.281815 308.962524,254.464539 
	C290.694885,236.528015 272.421600,218.597183 254.165405,200.649002 
	C252.936096,199.440460 251.833344,198.103180 249.993744,196.080200 
	C297.547577,196.742325 343.600311,201.206696 389.370605,207.949585 
	C392.079529,197.537857 392.016327,197.238220 386.049683,195.053085 
M216.555008,272.000183 
	C229.348389,273.008942 231.574280,267.603729 229.341949,258.344421 
	C227.870453,258.131897 226.349564,257.912231 224.828674,257.692566 
	C225.500656,257.146149 226.208160,257.228821 226.768723,256.980164 
	C229.049652,255.968491 232.633347,255.324814 233.211395,253.665634 
	C234.010483,251.371994 232.589279,248.272888 231.993164,245.546234 
	C231.832169,244.809814 230.763321,244.082153 230.878845,243.503799 
	C232.349304,236.142349 227.689056,231.374298 223.175369,227.216064 
	C210.779892,215.796707 194.357086,215.703430 181.297791,226.534439 
	C176.481033,230.529297 171.901062,235.214584 172.209900,242.666504 
	C174.822327,242.902618 176.939514,243.093964 179.056702,243.285324 
	C172.534195,244.375610 169.262955,246.527237 169.331131,250.634613 
	C169.414078,255.631882 172.842148,257.286102 178.899857,257.095581 
	C173.088440,258.444672 171.862717,259.728668 172.066406,262.952332 
	C172.391907,268.104065 176.235443,271.928131 181.460922,271.967377 
	C192.847031,272.052887 204.234177,271.998718 216.555008,272.000183 
M174.432434,38.086838 
	C170.085892,43.167896 171.014236,47.110947 176.640045,48.389961 
	C177.194504,50.191532 177.481323,51.993267 178.267685,53.541210 
	C184.609543,66.024673 190.971420,78.499779 197.553497,90.856888 
	C198.309250,92.275749 200.444168,93.736732 201.957596,93.755852 
	C203.457840,93.774818 205.638580,92.347931 206.389267,90.948250 
	C212.179184,80.152763 217.785400,69.255127 223.234756,58.282970 
	C224.737625,55.257008 225.518631,51.872540 226.630859,48.652569 
	C228.666367,47.296421 231.085922,45.647587 231.802338,43.444836 
	C232.977066,39.832932 230.008514,37.761810 227.227310,36.119160 
	C224.524582,34.522858 221.885086,32.488663 218.936829,31.708235 
	C212.924194,30.116646 206.714462,28.246859 200.600830,28.297262 
	C191.236328,28.374470 182.554977,31.779482 174.432434,38.086838 
M37.633595,153.339615 
	C35.684811,149.615524 32.686176,147.632477 28.411768,148.014389 
	C21.402660,148.640625 14.401657,149.357590 6.581553,150.115326 
	C8.430001,162.300858 10.164546,173.735489 11.991070,185.776474 
	C19.882782,184.387131 27.122505,183.610092 34.069962,181.744598 
	C40.560539,180.001770 43.539730,172.925461 40.639816,167.607635 
	C39.640919,165.775833 37.895420,164.351181 37.249397,163.610306 
	C37.496498,159.821442 37.682438,156.970398 37.633595,153.339615 
M383.026611,162.152313 
	C382.848785,163.018967 382.670959,163.885635 382.214447,166.110352 
	C379.414917,161.114227 377.249573,157.292221 375.124359,153.448029 
	C371.330200,146.584824 370.316559,146.104767 362.035614,147.688065 
	C360.962402,156.861145 360.299011,166.256790 358.592010,175.458832 
	C357.807098,179.690430 358.768677,181.138367 362.586914,181.927628 
	C366.989075,182.837601 368.562592,180.712753 368.961609,176.780258 
	C369.299988,173.445526 369.812683,170.128464 370.304993,166.370605 
	C377.045013,172.839340 376.026917,186.245880 389.978180,185.169052 
	C391.327454,176.316040 392.933685,167.596268 393.914246,158.806671 
	C394.810333,150.774002 394.512146,150.739655 386.317291,149.310547 
	C386.168396,149.284576 385.997894,149.382385 385.206360,149.580017 
	C384.522827,153.318939 383.790497,157.324768 383.026611,162.152313 
M60.500702,172.959427 
	C65.129646,180.236389 65.395187,180.234161 76.406380,176.749451 
	C74.008736,173.274475 71.710838,169.944046 69.448311,166.664902 
	C70.019180,165.968277 70.501396,165.328873 71.035553,164.736267 
	C74.666130,160.708496 75.133041,156.018768 73.000435,151.352325 
	C70.688766,146.294052 66.556213,143.422714 60.706982,144.020752 
	C54.529686,144.652328 48.370377,145.459885 41.940746,146.221664 
	C43.256687,158.130630 44.495205,169.338913 45.734768,180.556656 
	C49.606537,180.190353 52.502792,179.916351 55.818703,179.602631 
	C55.818703,176.324417 55.818703,173.275650 55.818703,168.794800 
	C57.898510,170.516785 58.998131,171.427231 60.500702,172.959427 
M303.064240,152.173615 
	C303.064240,148.600342 303.064240,145.027054 303.064240,141.194595 
	C299.920624,140.849930 296.640045,140.490250 293.029480,140.094391 
	C292.221680,152.051743 291.468323,163.202637 290.698669,174.594910 
	C294.797089,174.958008 298.005768,175.242279 301.616058,175.562134 
	C301.841797,171.726135 302.052856,168.138931 302.299713,163.944183 
	C305.925018,164.423935 309.230682,164.861389 313.053223,165.367233 
	C312.865387,169.194702 312.691162,172.744766 312.496918,176.703140 
	C314.103058,176.801270 315.782928,176.647217 317.319000,177.046509 
	C321.702606,178.185974 323.030762,176.712341 323.147858,172.171371 
	C323.330139,165.100708 324.154510,158.015060 325.182770,151.005600 
	C326.514893,141.924484 326.461243,141.654053 317.334656,142.054657 
	C316.706299,142.082230 316.087524,142.328262 315.381287,142.491943 
	C314.761963,146.654953 314.163849,150.675247 313.536041,154.895172 
	C309.923645,154.251205 306.584564,153.655960 303.064240,152.173615 
M90.897575,141.002090 
	C81.403885,141.885025 74.758553,152.404953 76.969543,162.733170 
	C78.791748,171.245300 84.939842,175.307114 92.528709,176.763672 
	C99.399605,178.082443 105.512390,174.987656 109.845329,169.501236 
	C114.269539,163.899292 115.084236,157.618988 111.990067,150.923965 
	C107.908226,142.091858 100.556320,140.174713 90.897575,141.002090 
M147.297134,146.954056 
	C150.003922,147.353668 153.123535,148.757462 155.298462,147.863342 
	C157.368942,147.012161 158.453064,143.761765 159.956924,141.586334 
	C152.533173,136.512146 144.109848,135.730545 136.805115,139.086746 
	C131.543671,141.504150 129.503387,145.016754 130.023636,150.529465 
	C130.520218,155.791260 134.316483,157.689957 138.622498,158.893341 
	C142.314804,159.925186 146.102997,160.613953 149.848785,161.454453 
	C143.944183,165.676514 138.447449,163.616333 132.929886,160.947540 
	C131.953262,163.009720 130.638016,164.726288 130.432251,166.566879 
	C130.275879,167.965424 131.117706,170.291275 132.223541,170.884537 
	C140.170029,175.147644 148.296280,175.472244 156.263443,170.806030 
	C160.569580,168.284012 162.224182,163.934814 160.714584,159.680954 
	C159.664749,156.722656 156.603409,153.872635 153.715912,152.337448 
	C150.652115,150.708542 146.717606,150.751419 143.196228,149.924210 
	C142.358963,149.727524 141.652710,148.973053 140.886200,148.475143 
	C141.007629,148.067596 141.129044,147.660049 141.250473,147.252487 
	C142.978363,147.164612 144.706238,147.076721 147.297134,146.954056 
M357.827148,148.560837 
	C357.075684,147.705139 356.434784,146.257019 355.554291,146.092712 
	C350.868713,145.218353 346.130463,144.606415 341.395844,144.021667 
	C338.063110,143.610062 334.707184,143.386780 330.944855,143.041107 
	C329.915771,153.838654 329.060547,163.867340 327.950500,173.867722 
	C327.578705,177.217346 329.462189,178.557419 332.010162,178.809570 
	C338.253174,179.427414 344.539520,179.596893 350.803894,180.014648 
	C353.798248,180.214310 354.960144,178.891022 355.040741,175.934570 
	C355.120636,173.005554 354.539429,171.130066 351.105011,170.989044 
	C347.815735,170.853973 344.500916,170.525162 341.287140,169.852402 
	C340.296844,169.645065 339.601593,168.028137 338.771271,167.056656 
	C343.734741,166.652878 347.597748,167.422806 351.486084,167.585175 
	C352.609741,167.632111 354.277649,166.162186 354.851959,164.978195 
	C355.596100,163.444153 355.495209,161.500183 355.741730,159.842972 
	C351.112030,156.152100 344.254181,160.089157 340.219086,154.615295 
	C343.144775,154.146637 346.074219,153.913528 348.834534,154.489990 
	C355.230286,155.825638 356.175659,155.436966 357.827148,148.560837 
M175.168274,168.946106 
	C176.523270,173.634933 177.220154,173.775375 185.775620,171.000076 
	C185.935791,168.023132 186.099213,164.985794 186.262634,161.948441 
	C191.435043,170.238983 197.768799,174.594345 207.881882,171.060944 
	C204.051819,166.321396 200.578308,161.692078 196.731384,157.397217 
	C194.697723,155.126770 194.907547,153.737778 196.806366,151.528748 
	C200.499344,147.232437 203.810547,142.607971 207.169998,138.261597 
	C196.069885,132.748856 192.172806,141.809708 186.626465,148.034973 
	C184.572906,135.839066 184.465057,135.746658 175.157150,137.790726 
	C175.157150,147.808472 175.157150,157.925827 175.168274,168.946106 
M276.710205,138.387711 
	C265.669769,135.925323 254.640640,143.676620 254.042511,155.288162 
	C253.674774,162.427444 256.402588,168.480774 262.488831,171.938675 
	C269.576813,175.965714 277.190765,175.119659 284.039612,170.806183 
	C286.072723,169.525726 287.226776,166.849533 288.783600,164.812866 
	C286.680603,163.304916 284.742188,161.350998 282.401459,160.487244 
	C281.318390,160.087540 279.285217,161.599167 277.969696,162.615585 
	C273.828339,165.815323 269.912292,165.701706 266.559387,162.054825 
	C264.172546,159.458710 264.269775,152.538696 266.727142,150.117096 
	C269.917786,146.972885 274.473755,147.195068 278.221832,150.735321 
	C279.256775,151.712891 280.162689,152.827057 281.273529,154.037308 
	C284.258362,152.542526 287.111816,151.113541 289.930145,149.702133 
	C287.292053,143.518936 284.205750,140.912292 276.710205,138.387711 
M222.182114,143.298355 
	C223.413513,144.199051 224.584518,145.771637 225.886353,145.888626 
	C232.983917,146.526505 233.147171,146.407700 232.945557,153.350311 
	C232.760498,159.722794 232.199127,166.084320 231.809601,172.353546 
	C241.884415,173.973328 242.935104,173.129639 242.971436,164.157776 
	C242.994125,158.558685 242.975647,152.959442 242.975647,147.494812 
	C254.595703,145.831985 254.832001,145.606979 252.785339,137.007370 
	C244.546112,137.007370 235.954865,137.193832 227.377625,136.928055 
	C223.141556,136.796814 221.552094,138.355347 222.182114,143.298355 
M126.219162,140.315689 
	C125.324516,139.231842 124.479736,137.289032 123.525383,137.233627 
	C121.158958,137.096237 118.742470,137.821152 116.453506,138.182709 
	C116.453506,143.664429 116.453506,148.683853 116.453506,154.124741 
	C119.494209,153.532654 122.010216,153.042740 124.752075,152.508850 
	C125.201675,148.617218 125.633896,144.876099 126.219162,140.315689 
z"/>
<path fill="#000" opacity="1.000000" stroke="none" 
	d="
M15.405944,139.315704 
	C12.052019,139.922943 9.032605,140.383469 5.974249,140.849915 
	C5.654180,140.333084 5.260830,139.962357 5.183654,139.534592 
	C3.290737,129.043106 3.317553,129.211166 13.813089,127.919991 
	C28.386776,126.127106 42.911610,123.936668 57.486012,122.150215 
	C63.230957,121.446037 69.054626,121.394653 74.839729,121.005707 
	C94.163567,119.706520 113.482742,118.334785 132.811722,117.118073 
	C137.461227,116.825401 142.145172,117.120789 146.806274,116.952171 
	C148.886246,116.876930 150.948883,116.322861 153.618500,115.888680 
	C147.637299,107.630722 140.926254,102.600143 130.720367,104.019218 
	C117.101448,105.912857 105.790794,101.263596 95.578178,92.256950 
	C84.925629,82.862320 73.578201,74.258705 62.615128,65.211647 
	C57.939568,61.353233 53.373466,57.346447 48.993801,53.160007 
	C48.224354,52.424511 48.072987,50.216187 48.570824,49.107880 
	C54.042526,36.926540 60.879753,25.584307 71.898636,17.631357 
	C79.232269,12.338263 87.170425,7.880478 94.859947,3.083991 
	C97.521088,1.424055 99.646988,1.859322 101.778702,4.389876 
	C108.068619,11.856593 114.597572,19.121418 120.992989,26.499914 
	C129.340286,36.130337 137.707932,45.744228 145.950317,55.464027 
	C150.176346,60.447533 152.048035,66.369652 152.001465,72.899635 
	C151.987198,74.899513 152.242203,76.934555 151.959763,78.893799 
	C150.304214,90.378395 154.915909,98.854347 164.243927,105.186325 
	C165.315216,105.913536 166.466782,106.732689 167.149902,107.788261 
	C172.554535,116.139778 180.679031,116.445137 189.462341,116.102707 
	C200.778366,115.661530 212.127380,116.127930 223.455536,115.888351 
	C225.921387,115.836205 228.894440,115.087158 230.710846,113.560699 
	C236.536545,108.664948 241.937103,103.262367 247.487335,98.040092 
	C252.725845,93.111130 255.350159,87.044464 254.971771,79.850113 
	C254.597137,72.727646 257.052032,66.943909 262.314850,62.151157 
	C278.625244,47.297619 294.851685,32.351955 311.140656,17.474821 
	C316.946686,12.172009 322.838409,6.962991 328.691010,1.711158 
	C329.304138,1.997782 329.917267,2.284405 330.530365,2.571028 
	C330.177155,4.053827 330.287628,5.946115 329.397125,6.954421 
	C322.481537,14.785079 315.425446,22.494047 308.311584,30.146566 
	C298.135803,41.092827 287.848633,51.935467 277.660614,62.870399 
	C273.007538,67.864601 272.386322,74.455467 276.032043,78.477486 
	C280.139587,83.008980 287.179840,83.356499 292.566803,78.894409 
	C299.957214,72.772804 307.182373,66.447380 314.376404,60.093906 
	C326.671997,49.234985 338.867645,38.262779 351.186676,27.430777 
	C351.979523,26.733625 353.468842,26.828541 354.634155,26.554996 
	C354.592743,27.718037 354.829987,28.987545 354.436920,30.016222 
	C353.981720,31.207539 353.088287,32.298164 352.185455,33.241386 
	C343.127686,42.704369 334.042603,52.141354 324.937958,61.559299 
	C314.417023,72.442268 303.819183,83.251389 293.356720,94.190117 
	C289.202026,98.533943 284.079529,101.187927 278.336304,100.320496 
	C268.226318,98.793526 261.256714,103.672424 254.501785,109.913574 
	C252.560806,111.706909 250.119965,112.959251 247.908340,114.459656 
	C248.378693,115.086632 248.849045,115.713608 249.319397,116.340591 
	C250.368027,116.556068 251.409409,116.910744 252.466400,116.965927 
	C266.041992,117.674538 279.631531,118.163353 293.194153,119.061264 
	C310.692230,120.219727 328.198486,121.399971 345.646606,123.123711 
	C361.741241,124.713745 377.760345,127.061562 393.820801,129.009201 
	C396.848206,129.376328 398.406097,130.779633 397.965027,133.892685 
	C397.618988,136.335068 397.109650,138.754318 396.543304,141.904541 
	C391.021545,141.225098 385.560974,140.495499 380.086639,139.890656 
	C365.027252,138.226761 349.962708,136.609146 334.898956,134.984833 
	C322.640594,133.663025 310.389465,132.262451 298.115814,131.100967 
	C294.194214,130.729858 290.209045,131.081451 286.255981,130.982513 
	C274.407532,130.686066 262.562531,130.174179 250.712723,130.027466 
	C217.092957,129.611191 183.470993,129.059906 149.850815,129.115997 
	C132.329498,129.145218 114.774429,129.856903 97.299652,131.143646 
	C78.752869,132.509338 60.287872,134.967880 41.777645,136.855896 
	C33.110115,137.739975 24.420218,138.404800 15.405944,139.315704 
M128.894852,51.649441 
	C123.862610,46.188900 118.836266,40.722912 113.796463,35.269356 
	C108.818962,29.883207 104.714272,23.524260 97.445618,20.497622 
	C97.527733,22.131189 98.051926,23.415789 98.932793,24.371746 
	C112.170395,38.737907 125.434349,53.080067 138.778366,67.347206 
	C139.601501,68.227287 141.142639,68.435837 142.349716,68.956833 
	C142.732834,68.428993 143.115936,67.901161 143.499054,67.373322 
	C138.728958,62.349113 133.958847,57.324905 128.894852,51.649441 
M87.814171,29.301067 
	C87.943825,30.767948 87.494331,32.790829 88.289345,33.618954 
	C101.873650,47.769047 115.596397,61.786602 129.348846,75.774162 
	C130.343536,76.785866 131.801270,77.342308 133.043716,78.110420 
	C133.388123,77.777466 133.732544,77.444504 134.076950,77.111549 
	C133.545532,76.072380 133.230103,74.821815 132.450668,74.025360 
	C117.828918,59.084324 103.152145,44.197136 87.814171,29.301067 
M92.502953,52.978054 
	C87.385559,48.557648 83.265663,42.821037 76.281029,40.666206 
	C76.853966,42.659016 77.788841,44.313839 79.113899,45.550640 
	C92.770279,58.297421 106.463455,71.005310 120.237495,83.624580 
	C121.446869,84.732567 123.301300,85.136482 124.856117,85.867416 
	C125.266602,85.269127 125.677086,84.670837 126.087570,84.072548 
	C115.060547,73.874367 104.033524,63.676174 92.502953,52.978054 
M113.068962,89.469337 
	C107.004051,84.105141 100.953850,78.724205 94.870621,73.380867 
	C86.712975,66.215424 78.575096,59.025654 70.296867,52.001743 
	C69.325279,51.177364 67.520691,51.334740 66.102264,51.036991 
	C65.909241,51.457245 65.716217,51.877499 65.523193,52.297752 
	C69.197723,55.550385 72.870827,58.804626 76.547028,62.055367 
	C88.181053,72.342926 99.783653,82.666611 111.498077,92.861809 
	C112.760849,93.960815 114.675301,94.311035 116.287460,95.008591 
	C116.531029,94.632263 116.774597,94.255928 117.018158,93.879601 
	C115.896416,92.546684 114.774673,91.213776 113.068962,89.469337 
z"/>
<path fill="#000" opacity="1.000000" stroke="none" 
	d="
M386.490906,195.093048 
	C392.016327,197.238220 392.079529,197.537857 389.370605,207.949585 
	C343.600311,201.206696 297.547577,196.742325 249.993744,196.080200 
	C251.833344,198.103180 252.936096,199.440460 254.165405,200.649002 
	C272.421600,218.597183 290.694885,236.528015 308.962524,254.464539 
	C309.794891,255.281815 310.650940,256.079498 311.430511,256.945251 
	C316.002380,262.022583 316.150208,266.485626 311.941803,271.518890 
	C308.581726,275.537598 301.486176,276.607758 297.010071,273.309998 
	C293.465729,270.698700 290.242950,267.612183 287.079407,264.529297 
	C270.404175,248.279343 253.777130,231.979797 237.167786,215.662445 
	C230.723099,209.331070 224.432678,202.840958 217.907547,196.594925 
	C216.869232,195.600998 214.969147,195.109985 213.453461,195.079346 
	C205.956818,194.927780 198.448059,194.825394 190.960617,195.127960 
	C188.903870,195.211060 186.433853,196.263107 184.953003,197.696518 
	C167.132523,214.946014 149.487732,232.376801 131.741394,249.703232 
	C123.933258,257.326630 116.043785,264.868408 108.102715,272.353302 
	C103.814880,276.394806 95.841705,275.812164 91.943275,271.361053 
	C87.982346,266.838593 88.293709,260.492554 92.600204,256.275330 
	C104.518509,244.604141 116.374840,232.869507 128.322174,221.228226 
	C135.581924,214.154465 142.994080,207.237213 150.266083,200.175842 
	C151.604248,198.876419 152.598648,197.223007 153.751709,195.732971 
	C153.539490,195.155060 153.327286,194.577148 153.115067,193.999252 
	C106.654694,197.817841 60.194321,201.636429 12.903212,205.523300 
	C12.624539,203.091599 12.207393,199.451553 11.731230,195.296524 
	C25.559673,193.459000 38.585815,191.442352 51.678783,190.057602 
	C69.756409,188.145691 87.881287,186.674393 105.992714,185.092133 
	C111.601654,184.602112 117.229980,184.114212 122.854080,184.053024 
	C160.639709,183.641861 198.426834,183.093048 236.213013,183.125549 
	C253.622330,183.140533 271.046631,184.094955 288.434723,185.121964 
	C304.775635,186.087128 321.110168,187.404434 337.386932,189.136093 
	C350.830170,190.566330 364.178650,192.875198 377.584167,194.682800 
	C380.371979,195.058701 383.226105,194.942505 386.490906,195.093048 
z"/>
<path fill="#000" opacity="1.000000" stroke="none" 
	d="
M216.087952,272.000916 
	C204.234177,271.998718 192.847031,272.052887 181.460922,271.967377 
	C176.235443,271.928131 172.391907,268.104065 172.066406,262.952332 
	C171.862717,259.728668 173.088440,258.444672 178.899857,257.095581 
	C172.842148,257.286102 169.414078,255.631882 169.331131,250.634613 
	C169.262955,246.527237 172.534195,244.375610 179.056702,243.285324 
	C176.939514,243.093964 174.822327,242.902618 172.209900,242.666504 
	C171.901062,235.214584 176.481033,230.529297 181.297791,226.534439 
	C194.357086,215.703430 210.779892,215.796707 223.175369,227.216064 
	C227.689056,231.374298 232.349304,236.142349 230.878845,243.503799 
	C230.763321,244.082153 231.832169,244.809814 231.993164,245.546234 
	C232.589279,248.272888 234.010483,251.371994 233.211395,253.665634 
	C232.633347,255.324814 229.049652,255.968491 226.768723,256.980164 
	C226.208160,257.228821 225.500656,257.146149 224.828674,257.692566 
	C226.349564,257.912231 227.870453,258.131897 229.341949,258.344421 
	C231.574280,267.603729 229.348389,273.008942 216.087952,272.000916 
M195.877625,244.999069 
	C202.595520,244.761597 209.369858,244.272583 214.711258,249.969818 
	C216.082870,247.799271 217.076370,246.227066 218.268936,244.339844 
	C208.824249,244.339844 199.970764,244.339844 191.117264,244.339844 
	C191.118759,244.559677 191.120255,244.779495 191.121735,244.999329 
	C192.423416,244.999329 193.725082,244.999329 195.877625,244.999069 
z"/>
<path fill="#000" opacity="1.000000" stroke="none" 
	d="
M174.718231,37.838226 
	C182.554977,31.779482 191.236328,28.374470 200.600830,28.297262 
	C206.714462,28.246859 212.924194,30.116646 218.936829,31.708235 
	C221.885086,32.488663 224.524582,34.522858 227.227310,36.119160 
	C230.008514,37.761810 232.977066,39.832932 231.802338,43.444836 
	C231.085922,45.647587 228.666367,47.296421 226.630859,48.652569 
	C225.518631,51.872540 224.737625,55.257008 223.234756,58.282970 
	C217.785400,69.255127 212.179184,80.152763 206.389267,90.948250 
	C205.638580,92.347931 203.457840,93.774818 201.957596,93.755852 
	C200.444168,93.736732 198.309250,92.275749 197.553497,90.856888 
	C190.971420,78.499779 184.609543,66.024673 178.267685,53.541210 
	C177.481323,51.993267 177.194504,50.191532 176.640045,48.389961 
	C171.014236,47.110947 170.085892,43.167896 174.718231,37.838226 
M210.464859,63.873474 
	C212.894135,63.113514 214.866272,61.854565 213.242828,59.052502 
	C212.657181,58.041676 210.923309,57.372215 209.633392,57.218533 
	C208.895813,57.130653 207.194031,58.654797 207.307663,59.004917 
	C207.851715,60.681545 208.867767,62.205009 210.464859,63.873474 
M188.853912,55.783356 
	C190.226974,58.721771 190.226974,58.721771 195.602264,54.319714 
	C195.049255,53.505177 194.640549,52.526321 193.916306,51.931873 
	C193.012604,51.190136 191.848999,50.765049 190.797623,50.203247 
	C190.504852,51.288696 190.235962,52.381390 189.910004,53.456787 
	C189.724686,54.068165 189.446030,54.651257 188.853912,55.783356 
z"/>
<path fill="#fff" opacity="1.000000" stroke="none" 
	d="
M37.750984,153.729492 
	C37.682438,156.970398 37.496498,159.821442 37.249397,163.610306 
	C37.895420,164.351181 39.640919,165.775833 40.639816,167.607635 
	C43.539730,172.925461 40.560539,180.001770 34.069962,181.744598 
	C27.122505,183.610092 19.882782,184.387131 11.991070,185.776474 
	C10.164546,173.735489 8.430001,162.300858 6.581553,150.115326 
	C14.401657,149.357590 21.402660,148.640625 28.411768,148.014389 
	C32.686176,147.632477 35.684811,149.615524 37.750984,153.729492 
M21.739325,170.014664 
	C18.602291,172.471542 20.463013,174.460159 22.901268,174.757523 
	C25.266315,175.045929 27.855696,173.755753 30.265945,172.924957 
	C30.462133,172.857315 30.142027,170.120590 29.883711,170.089188 
	C27.623375,169.814392 25.322510,169.871246 23.033558,169.837265 
	C22.872068,169.834854 22.709688,169.892365 21.739325,170.014664 
M19.277340,161.254120 
	C22.135668,161.254120 24.993996,161.254120 27.852324,161.254120 
	C27.970066,160.372574 28.087807,159.491028 28.205549,158.609482 
	C26.373095,158.077103 24.455357,156.953674 22.735529,157.201843 
	C21.391872,157.395706 20.293882,159.292130 19.277340,161.254120 
z"/>
<path fill="#fff" opacity="1.000000" stroke="none" 
	d="
M383.042358,161.741455 
	C383.790497,157.324768 384.522827,153.318939 385.206360,149.580017 
	C385.997894,149.382385 386.168396,149.284576 386.317291,149.310547 
	C394.512146,150.739655 394.810333,150.774002 393.914246,158.806671 
	C392.933685,167.596268 391.327454,176.316040 389.978180,185.169052 
	C376.026917,186.245880 377.045013,172.839340 370.304993,166.370605 
	C369.812683,170.128464 369.299988,173.445526 368.961609,176.780258 
	C368.562592,180.712753 366.989075,182.837601 362.586914,181.927628 
	C358.768677,181.138367 357.807098,179.690430 358.592010,175.458832 
	C360.299011,166.256790 360.962402,156.861145 362.035614,147.688065 
	C370.316559,146.104767 371.330200,146.584824 375.124359,153.448029 
	C377.249573,157.292221 379.414917,161.114227 382.214447,166.110352 
	C382.670959,163.885635 382.848785,163.018967 383.042358,161.741455 
z"/>
<path fill="#fff" opacity="1.000000" stroke="none" 
	d="
M60.299225,172.648544 
	C58.998131,171.427231 57.898510,170.516785 55.818703,168.794800 
	C55.818703,173.275650 55.818703,176.324417 55.818703,179.602631 
	C52.502792,179.916351 49.606537,180.190353 45.734768,180.556656 
	C44.495205,169.338913 43.256687,158.130630 41.940746,146.221664 
	C48.370377,145.459885 54.529686,144.652328 60.706982,144.020752 
	C66.556213,143.422714 70.688766,146.294052 73.000435,151.352325 
	C75.133041,156.018768 74.666130,160.708496 71.035553,164.736267 
	C70.501396,165.328873 70.019180,165.968277 69.448311,166.664902 
	C71.710838,169.944046 74.008736,173.274475 76.406380,176.749451 
	C65.395187,180.234161 65.129646,180.236389 60.299225,172.648544 
M61.737209,154.372620 
	C59.333908,154.219025 56.930607,154.065430 54.387001,153.902863 
	C54.387001,156.623856 54.387001,158.672256 54.387001,160.703491 
	C61.589062,161.025284 63.213783,159.792389 61.737209,154.372620 
z"/>
<path fill="#fff" opacity="1.000000" stroke="none" 
	d="
M303.154846,152.617157 
	C306.584564,153.655960 309.923645,154.251205 313.536041,154.895172 
	C314.163849,150.675247 314.761963,146.654953 315.381287,142.491943 
	C316.087524,142.328262 316.706299,142.082230 317.334656,142.054657 
	C326.461243,141.654053 326.514893,141.924484 325.182770,151.005600 
	C324.154510,158.015060 323.330139,165.100708 323.147858,172.171371 
	C323.030762,176.712341 321.702606,178.185974 317.319000,177.046509 
	C315.782928,176.647217 314.103058,176.801270 312.496918,176.703140 
	C312.691162,172.744766 312.865387,169.194702 313.053223,165.367233 
	C309.230682,164.861389 305.925018,164.423935 302.299713,163.944183 
	C302.052856,168.138931 301.841797,171.726135 301.616058,175.562134 
	C298.005768,175.242279 294.797089,174.958008 290.698669,174.594910 
	C291.468323,163.202637 292.221680,152.051743 293.029480,140.094391 
	C296.640045,140.490250 299.920624,140.849930 303.064240,141.194595 
	C303.064240,145.027054 303.064240,148.600342 303.154846,152.617157 
z"/>
<path fill="#fff" opacity="1.000000" stroke="none" 
	d="
M91.346687,140.998871 
	C100.556320,140.174713 107.908226,142.091858 111.990067,150.923965 
	C115.084236,157.618988 114.269539,163.899292 109.845329,169.501236 
	C105.512390,174.987656 99.399605,178.082443 92.528709,176.763672 
	C84.939842,175.307114 78.791748,171.245300 76.969543,162.733170 
	C74.758553,152.404953 81.403885,141.885025 91.346687,140.998871 
M103.406609,157.854004 
	C103.190002,157.061783 103.064758,156.230042 102.741905,155.483780 
	C100.703796,150.772873 95.804565,148.771469 91.494461,150.848465 
	C87.180107,152.927475 85.577065,158.108261 87.852150,162.619904 
	C89.931328,166.743073 95.136253,168.527588 99.180717,165.671478 
	C101.299011,164.175568 102.218163,160.981552 103.406609,157.854004 
z"/>
<path fill="#fff" opacity="1.000000" stroke="none" 
	d="
M146.865631,146.971436 
	C144.706238,147.076721 142.978363,147.164612 141.250473,147.252487 
	C141.129044,147.660049 141.007629,148.067596 140.886200,148.475143 
	C141.652710,148.973053 142.358963,149.727524 143.196228,149.924210 
	C146.717606,150.751419 150.652115,150.708542 153.715912,152.337448 
	C156.603409,153.872635 159.664749,156.722656 160.714584,159.680954 
	C162.224182,163.934814 160.569580,168.284012 156.263443,170.806030 
	C148.296280,175.472244 140.170029,175.147644 132.223541,170.884537 
	C131.117706,170.291275 130.275879,167.965424 130.432251,166.566879 
	C130.638016,164.726288 131.953262,163.009720 132.929886,160.947540 
	C138.447449,163.616333 143.944183,165.676514 149.848785,161.454453 
	C146.102997,160.613953 142.314804,159.925186 138.622498,158.893341 
	C134.316483,157.689957 130.520218,155.791260 130.023636,150.529465 
	C129.503387,145.016754 131.543671,141.504150 136.805115,139.086746 
	C144.109848,135.730545 152.533173,136.512146 159.956924,141.586334 
	C158.453064,143.761765 157.368942,147.012161 155.298462,147.863342 
	C153.123535,148.757462 150.003922,147.353668 146.865631,146.971436 
z"/>
<path fill="#fff" opacity="1.000000" stroke="none" 
	d="
M357.827637,148.977066 
	C356.175659,155.436966 355.230286,155.825638 348.834534,154.489990 
	C346.074219,153.913528 343.144775,154.146637 340.219086,154.615295 
	C344.254181,160.089157 351.112030,156.152100 355.741730,159.842972 
	C355.495209,161.500183 355.596100,163.444153 354.851959,164.978195 
	C354.277649,166.162186 352.609741,167.632111 351.486084,167.585175 
	C347.597748,167.422806 343.734741,166.652878 338.771271,167.056656 
	C339.601593,168.028137 340.296844,169.645065 341.287140,169.852402 
	C344.500916,170.525162 347.815735,170.853973 351.105011,170.989044 
	C354.539429,171.130066 355.120636,173.005554 355.040741,175.934570 
	C354.960144,178.891022 353.798248,180.214310 350.803894,180.014648 
	C344.539520,179.596893 338.253174,179.427414 332.010162,178.809570 
	C329.462189,178.557419 327.578705,177.217346 327.950500,173.867722 
	C329.060547,163.867340 329.915771,153.838654 330.944855,143.041107 
	C334.707184,143.386780 338.063110,143.610062 341.395844,144.021667 
	C346.130463,144.606415 350.868713,145.218353 355.554291,146.092712 
	C356.434784,146.257019 357.075684,147.705139 357.827637,148.977066 
z"/>
<path fill="#fff" opacity="1.000000" stroke="none" 
	d="
M175.162720,168.494644 
	C175.157150,157.925827 175.157150,147.808472 175.157150,137.790726 
	C184.465057,135.746658 184.572906,135.839066 186.626465,148.034973 
	C192.172806,141.809708 196.069885,132.748856 207.169998,138.261597 
	C203.810547,142.607971 200.499344,147.232437 196.806366,151.528748 
	C194.907547,153.737778 194.697723,155.126770 196.731384,157.397217 
	C200.578308,161.692078 204.051819,166.321396 207.881882,171.060944 
	C197.768799,174.594345 191.435043,170.238983 186.262634,161.948441 
	C186.099213,164.985794 185.935791,168.023132 185.775620,171.000076 
	C177.220154,173.775375 176.523270,173.634933 175.162720,168.494644 
z"/>
<path fill="#fff" opacity="1.000000" stroke="none" 
	d="
M277.066467,138.599396 
	C284.205750,140.912292 287.292053,143.518936 289.930145,149.702133 
	C287.111816,151.113541 284.258362,152.542526 281.273529,154.037308 
	C280.162689,152.827057 279.256775,151.712891 278.221832,150.735321 
	C274.473755,147.195068 269.917786,146.972885 266.727142,150.117096 
	C264.269775,152.538696 264.172546,159.458710 266.559387,162.054825 
	C269.912292,165.701706 273.828339,165.815323 277.969696,162.615585 
	C279.285217,161.599167 281.318390,160.087540 282.401459,160.487244 
	C284.742188,161.350998 286.680603,163.304916 288.783600,164.812866 
	C287.226776,166.849533 286.072723,169.525726 284.039612,170.806183 
	C277.190765,175.119659 269.576813,175.965714 262.488831,171.938675 
	C256.402588,168.480774 253.674774,162.427444 254.042511,155.288162 
	C254.640640,143.676620 265.669769,135.925323 277.066467,138.599396 
z"/>
<path fill="#fff" opacity="1.000000" stroke="none" 
	d="
M222.171783,142.859436 
	C221.552094,138.355347 223.141556,136.796814 227.377625,136.928055 
	C235.954865,137.193832 244.546112,137.007370 252.785339,137.007370 
	C254.832001,145.606979 254.595703,145.831985 242.975647,147.494812 
	C242.975647,152.959442 242.994125,158.558685 242.971436,164.157776 
	C242.935104,173.129639 241.884415,173.973328 231.809601,172.353546 
	C232.199127,166.084320 232.760498,159.722794 232.945557,153.350311 
	C233.147171,146.407700 232.983917,146.526505 225.886353,145.888626 
	C224.584518,145.771637 223.413513,144.199051 222.171783,142.859436 
z"/>
<path fill="#fff" opacity="1.000000" stroke="none" 
	d="
M210.054672,137.170761 
	C213.150406,137.170761 216.246140,137.170761 219.937790,137.170761 
	C219.937790,148.062897 220.009949,158.592743 219.815598,169.117676 
	C219.798004,170.070526 218.172180,171.616013 217.105621,171.800247 
	C214.739090,172.208984 212.253342,171.927628 209.155304,171.927628 
	C209.155304,169.312393 209.155304,167.218277 209.441544,164.370697 
	C209.836746,154.801727 209.945709,145.986237 210.054672,137.170761 
z"/>
<path fill="#fff" opacity="1.000000" stroke="none" 
	d="
M126.142639,140.725327 
	C125.633896,144.876099 125.201675,148.617218 124.752075,152.508850 
	C122.010216,153.042740 119.494209,153.532654 116.453506,154.124741 
	C116.453506,148.683853 116.453506,143.664429 116.453506,138.182709 
	C118.742470,137.821152 121.158958,137.096237 123.525383,137.233627 
	C124.479736,137.289032 125.324516,139.231842 126.142639,140.725327 
z"/>
<path fill="#000" opacity="1.000000" stroke="none" 
	d="
M209.715820,137.412781 
	C209.945709,145.986237 209.836746,154.801727 209.439240,163.948349 
	C209.226105,155.404602 209.301529,146.529709 209.715820,137.412781 
z"/>
<path fill="none" opacity="1.000000" stroke="none" 
	d="
M129.041794,51.975067 
	C133.958847,57.324905 138.728958,62.349113 143.499054,67.373322 
	C143.115936,67.901161 142.732834,68.428993 142.349716,68.956833 
	C141.142639,68.435837 139.601501,68.227287 138.778366,67.347206 
	C125.434349,53.080067 112.170395,38.737907 98.932793,24.371746 
	C98.051926,23.415789 97.527733,22.131189 97.445618,20.497622 
	C104.714272,23.524260 108.818962,29.883207 113.796463,35.269356 
	C118.836266,40.722912 123.862610,46.188900 129.041794,51.975067 
z"/>
<path fill="none" opacity="1.000000" stroke="none" 
	d="
M88.150528,29.299873 
	C103.152145,44.197136 117.828918,59.084324 132.450668,74.025360 
	C133.230103,74.821815 133.545532,76.072380 134.076950,77.111549 
	C133.732544,77.444504 133.388123,77.777466 133.043716,78.110420 
	C131.801270,77.342308 130.343536,76.785866 129.348846,75.774162 
	C115.596397,61.786602 101.873650,47.769047 88.289345,33.618954 
	C87.494331,32.790829 87.943825,30.767948 88.150528,29.299873 
z"/>
<path fill="none" opacity="1.000000" stroke="none" 
	d="
M92.754730,53.228020 
	C104.033524,63.676174 115.060547,73.874367 126.087570,84.072548 
	C125.677086,84.670837 125.266602,85.269127 124.856117,85.867416 
	C123.301300,85.136482 121.446869,84.732567 120.237495,83.624580 
	C106.463455,71.005310 92.770279,58.297421 79.113899,45.550640 
	C77.788841,44.313839 76.853966,42.659016 76.281029,40.666206 
	C83.265663,42.821037 87.385559,48.557648 92.754730,53.228020 
z"/>
<path fill="none" opacity="1.000000" stroke="none" 
	d="
M113.360947,89.675102 
	C114.774673,91.213776 115.896416,92.546684 117.018158,93.879601 
	C116.774597,94.255928 116.531029,94.632263 116.287460,95.008591 
	C114.675301,94.311035 112.760849,93.960815 111.498077,92.861809 
	C99.783653,82.666611 88.181053,72.342926 76.547028,62.055367 
	C72.870827,58.804626 69.197723,55.550385 65.523193,52.297752 
	C65.716217,51.877499 65.909241,51.457245 66.102264,51.036991 
	C67.520691,51.334740 69.325279,51.177364 70.296867,52.001743 
	C78.575096,59.025654 86.712975,66.215424 94.870621,73.380867 
	C100.953850,78.724205 107.004051,84.105141 113.360947,89.675102 
z"/>
<path fill="none" opacity="1.000000" stroke="none" 
	d="
M195.452194,244.999207 
	C193.725082,244.999329 192.423416,244.999329 191.121735,244.999329 
	C191.120255,244.779495 191.118759,244.559677 191.117264,244.339844 
	C199.970764,244.339844 208.824249,244.339844 218.268936,244.339844 
	C217.076370,246.227066 216.082870,247.799271 214.711258,249.969818 
	C209.369858,244.272583 202.595520,244.761597 195.452194,244.999207 
z"/>
<path fill="none" opacity="1.000000" stroke="none" 
	d="
M210.090469,63.828186 
	C208.867767,62.205009 207.851715,60.681545 207.307663,59.004917 
	C207.194031,58.654797 208.895813,57.130653 209.633392,57.218533 
	C210.923309,57.372215 212.657181,58.041676 213.242828,59.052502 
	C214.866272,61.854565 212.894135,63.113514 210.090469,63.828186 
z"/>
<path fill="none" opacity="1.000000" stroke="none" 
	d="
M189.031662,55.515221 
	C189.446030,54.651257 189.724686,54.068165 189.910004,53.456787 
	C190.235962,52.381390 190.504852,51.288696 190.797623,50.203247 
	C191.848999,50.765049 193.012604,51.190136 193.916306,51.931873 
	C194.640549,52.526321 195.049255,53.505177 195.602264,54.319714 
	C190.226974,58.721771 190.226974,58.721771 189.031662,55.515221 
z"/>
<path fill="none" opacity="1.000000" stroke="none" 
	d="
M22.143524,169.968338 
	C22.709688,169.892365 22.872068,169.834854 23.033558,169.837265 
	C25.322510,169.871246 27.623375,169.814392 29.883711,170.089188 
	C30.142027,170.120590 30.462133,172.857315 30.265945,172.924957 
	C27.855696,173.755753 25.266315,175.045929 22.901268,174.757523 
	C20.463013,174.460159 18.602291,172.471542 22.143524,169.968338 
z"/>
<path fill="none" opacity="1.000000" stroke="none" 
	d="
M19.182034,160.843079 
	C20.293882,159.292130 21.391872,157.395706 22.735529,157.201843 
	C24.455357,156.953674 26.373095,158.077103 28.205549,158.609482 
	C28.087807,159.491028 27.970066,160.372574 27.852324,161.254120 
	C24.993996,161.254120 22.135668,161.254120 19.182034,160.843079 
z"/>
<path fill="none" opacity="1.000000" stroke="none" 
	d="
M62.035038,154.677780 
	C63.213783,159.792389 61.589062,161.025284 54.387001,160.703491 
	C54.387001,158.672256 54.387001,156.623856 54.387001,153.902863 
	C56.930607,154.065430 59.333908,154.219025 62.035038,154.677780 
z"/>
<path fill="none" opacity="1.000000" stroke="none" 
	d="
M103.542732,158.204224 
	C102.218163,160.981552 101.299011,164.175568 99.180717,165.671478 
	C95.136253,168.527588 89.931328,166.743073 87.852150,162.619904 
	C85.577065,158.108261 87.180107,152.927475 91.494461,150.848465 
	C95.804565,148.771469 100.703796,150.772873 102.741905,155.483780 
	C103.064758,156.230042 103.190002,157.061783 103.542732,158.204224 
z"/>
</svg>